<?xml version="1.0" encoding="UTF-8"?><svg id="Layer_1" xmlns="http://www.w3.org/2000/svg" xmlns:xlink="http://www.w3.org/1999/xlink" viewBox="0 0 1155.49 563.13"><defs><style>.cls-1{fill:#f3a925;}.cls-1,.cls-2,.cls-3,.cls-4,.cls-5,.cls-6,.cls-7,.cls-8,.cls-9,.cls-10,.cls-11,.cls-12,.cls-13,.cls-14,.cls-15,.cls-16,.cls-17,.cls-18{stroke-width:0px;}.cls-19{clip-path:url(#clippath);}.cls-2{fill:none;}.cls-20{mask:url(#mask);}.cls-3{fill:url(#radial-gradient);}.cls-4{fill:url(#radial-gradient-12);}.cls-5{fill:url(#radial-gradient-11);}.cls-6{fill:url(#radial-gradient-10);}.cls-7{fill:#006ca4;}.cls-21{clip-path:url(#clippath-1);}.cls-22{clip-path:url(#clippath-4);}.cls-23{clip-path:url(#clippath-3);}.cls-24{clip-path:url(#clippath-2);}.cls-25{clip-path:url(#clippath-7);}.cls-26{clip-path:url(#clippath-6);}.cls-27{clip-path:url(#clippath-5);}.cls-8{fill:url(#radial-gradient-2);}.cls-9{fill:url(#radial-gradient-3);}.cls-10{fill:url(#radial-gradient-4);}.cls-11{fill:url(#radial-gradient-6);}.cls-12{fill:url(#radial-gradient-9);}.cls-13{fill:url(#radial-gradient-8);}.cls-14{fill:url(#radial-gradient-5);}.cls-15{fill:url(#radial-gradient-7);}.cls-16{fill:#f97514;}.cls-17{fill:#f95a00;}.cls-28{mask:url(#mask-3);}.cls-29{mask:url(#mask-2);}.cls-30{mask:url(#mask-1);}.cls-18{fill:#1e325e;}</style><clipPath id="clippath"><path class="cls-2" d="M160.05,310.92c0,48.94,39.75,88.74,88.81,88.74s88.66-39.8,88.66-88.74-39.76-88.71-88.66-88.71-88.81,39.74-88.81,88.71"/></clipPath><radialGradient id="radial-gradient" cx="153.82" cy="934.95" fx="153.82" fy="934.95" r="31.71" gradientTransform="translate(5281.87 -2198.23) rotate(-126.29) scale(5.93 -5.93)" gradientUnits="userSpaceOnUse"><stop offset="0" stop-color="#7ec016"/><stop offset=".28" stop-color="#52ad22"/><stop offset=".6" stop-color="#259a2f"/><stop offset=".85" stop-color="#0a8e37"/><stop offset="1" stop-color="#008a3b"/></radialGradient><clipPath id="clippath-1"><path class="cls-2" d="M160.05,310.92c0,48.94,39.75,88.74,88.81,88.74s88.66-39.8,88.66-88.74-39.76-88.71-88.66-88.71-88.81,39.74-88.81,88.71"/></clipPath><radialGradient id="radial-gradient-2" cx="89.85" cy="769.82" fx="89.85" fy="769.82" r="31.69" gradientTransform="translate(.78 2446.59) scale(2.77 -2.77)" gradientUnits="userSpaceOnUse"><stop offset="0" stop-color="#000"/><stop offset=".44" stop-color="#000"/><stop offset="1" stop-color="gray"/></radialGradient><mask id="mask" x="160.05" y="222.21" width="177.47" height="177.46" maskUnits="userSpaceOnUse"><rect class="cls-8" x="160.05" y="222.21" width="177.47" height="177.46"/></mask><radialGradient id="radial-gradient-3" cx="89.85" cy="769.82" fx="89.85" fy="769.82" r="31.69" gradientTransform="translate(.78 2446.59) scale(2.77 -2.77)" gradientUnits="userSpaceOnUse"><stop offset="0" stop-color="#7ec016"/><stop offset=".44" stop-color="#7ec016"/><stop offset=".6" stop-color="#52ad22"/><stop offset=".78" stop-color="#259a2f"/><stop offset=".92" stop-color="#0a8e37"/><stop offset="1" stop-color="#008a3b"/></radialGradient><clipPath id="clippath-2"><path class="cls-2" d="M52.12,232.8c0,30.11,24.47,54.62,54.61,54.62s54.55-24.51,54.55-54.62-24.41-54.62-54.55-54.62-54.61,24.48-54.61,54.62"/></clipPath><radialGradient id="radial-gradient-4" cx="183.46" cy="991.25" fx="183.46" fy="991.25" r="31.7" gradientTransform="translate(3434.94 -1346.43) rotate(-126.29) scale(3.65 -3.65)" gradientUnits="userSpaceOnUse"><stop offset="0" stop-color="#f9ec00"/><stop offset="1" stop-color="#f3a900"/></radialGradient><clipPath id="clippath-3"><path class="cls-2" d="M52.12,232.8c0-30.14,24.47-54.62,54.61-54.62s54.55,24.48,54.55,54.62-24.41,54.62-54.55,54.62-54.61-24.51-54.61-54.62"/></clipPath><radialGradient id="radial-gradient-5" cx="-44.77" cy="749.74" fx="-44.77" fy="749.74" r="31.75" gradientTransform="translate(183.91 1513.07) scale(1.71 -1.71)" xlink:href="#radial-gradient-2"/><mask id="mask-1" x="52.12" y="178.18" width="109.16" height="109.24" maskUnits="userSpaceOnUse"><rect class="cls-14" x="52.12" y="178.18" width="109.16" height="109.24"/></mask><radialGradient id="radial-gradient-6" cx="-44.75" cy="749.74" fx="-44.75" fy="749.74" r="31.74" gradientTransform="translate(183.91 1513.07) scale(1.71 -1.71)" gradientUnits="userSpaceOnUse"><stop offset="0" stop-color="#f9ec00"/><stop offset=".44" stop-color="#f9ec00"/><stop offset="1" stop-color="#f3a900"/></radialGradient><clipPath id="clippath-4"><path class="cls-2" d="M272.56,455.11c0,30.56,24.79,55.29,55.3,55.29s55.2-24.73,55.2-55.29-24.67-55.3-55.2-55.3-55.3,24.73-55.3,55.3"/></clipPath><radialGradient id="radial-gradient-7" cx="102.09" cy="977.64" fx="102.09" fy="977.64" r="31.71" gradientTransform="translate(3477.09 -1355.56) rotate(-126.29) scale(3.7 -3.7)" gradientUnits="userSpaceOnUse"><stop offset="0" stop-color="#e8a700"/><stop offset=".5" stop-color="#f08200"/><stop offset="1" stop-color="#f95a00"/></radialGradient><clipPath id="clippath-5"><path class="cls-2" d="M272.56,455.11c0,30.56,24.79,55.29,55.3,55.29s55.2-24.73,55.2-55.29-24.67-55.3-55.2-55.3-55.3,24.73-55.3,55.3"/></clipPath><radialGradient id="radial-gradient-8" cx="81.68" cy="626.51" fx="81.68" fy="626.51" r="31.71" gradientTransform="translate(187.46 1537.77) scale(1.73 -1.73)" xlink:href="#radial-gradient-2"/><mask id="mask-2" x="272.56" y="399.81" width="110.5" height="110.59" maskUnits="userSpaceOnUse"><rect class="cls-13" x="272.56" y="399.81" width="110.5" height="110.59"/></mask><radialGradient id="radial-gradient-9" cx="81.68" cy="626.51" fx="81.68" fy="626.51" r="31.71" gradientTransform="translate(187.46 1537.77) scale(1.73 -1.73)" gradientUnits="userSpaceOnUse"><stop offset="0" stop-color="#e8a700"/><stop offset=".44" stop-color="#e8a700"/><stop offset=".72" stop-color="#f08200"/><stop offset="1" stop-color="#f95a00"/></radialGradient><clipPath id="clippath-6"><path class="cls-2" d="M238.09,153.04c0,29.93,24.26,54.22,54.16,54.22s54.18-24.29,54.18-54.22-24.2-54.13-54.18-54.13-54.16,24.19-54.16,54.13"/></clipPath><radialGradient id="radial-gradient-10" cx="171.28" cy="939.46" fx="171.28" fy="939.46" r="31.7" gradientTransform="translate(3415.36 -1337.56) rotate(-126.29) scale(3.62 -3.62)" gradientUnits="userSpaceOnUse"><stop offset="0" stop-color="#499bd7"/><stop offset=".09" stop-color="#4296d2"/><stop offset="1" stop-color="#006ca4"/></radialGradient><clipPath id="clippath-7"><path class="cls-2" d="M238.09,153.04c0,29.93,24.26,54.22,54.16,54.22s54.18-24.29,54.18-54.22-24.2-54.13-54.18-54.13-54.16,24.19-54.16,54.13"/></clipPath><radialGradient id="radial-gradient-11" cx="59.4" cy="794.15" fx="59.4" fy="794.15" r="31.75" gradientTransform="translate(192.47 1497.98) scale(1.69 -1.69)" xlink:href="#radial-gradient-2"/><mask id="mask-3" x="238.09" y="98.91" width="108.34" height="108.35" maskUnits="userSpaceOnUse"><rect class="cls-5" x="238.09" y="98.91" width="108.34" height="108.35"/></mask><radialGradient id="radial-gradient-12" cx="59.4" cy="794.15" fx="59.4" fy="794.15" r="31.75" gradientTransform="translate(192.47 1497.98) scale(1.69 -1.69)" gradientUnits="userSpaceOnUse"><stop offset="0" stop-color="#40a1db"/><stop offset=".44" stop-color="#40a1db"/><stop offset=".47" stop-color="#3c9dd7"/><stop offset="1" stop-color="#006ca4"/></radialGradient></defs><path class="cls-16" d="M336.72,0c-24.67,0-44.66,19.96-44.66,44.64,0,16.66,9.21,31.15,22.78,38.89l-24.92,60.17,12.18,4.3,23.94-60.03c3.41.77,6.99,1.36,10.67,1.36,24.65,0,44.66-20.09,44.66-44.68S361.36,0,336.72,0M336.72,80.26c-19.68,0-35.65-15.94-35.65-35.62s15.96-35.68,35.65-35.68,35.61,15.98,35.61,35.68-15.87,35.62-35.61,35.62"/><polygon class="cls-7" points="279.75 170.32 253.06 235.26 265.04 239.6 290.5 175.92 279.75 170.32"/><polygon class="cls-1" points="202.85 259.68 134.54 243.22 132.2 255.79 198.98 271.1 202.85 259.68"/><polygon class="cls-17" points="307.84 417.91 271.91 357.63 261.22 364.63 296.92 423.05 307.84 417.91"/><g class="cls-19"><polygon class="cls-3" points="222.23 484.36 75.37 284.39 275.32 137.59 422.16 337.47 222.23 484.36"/></g><g class="cls-21"><g class="cls-20"><rect class="cls-9" x="160.05" y="222.21" width="177.47" height="177.46"/></g></g><g class="cls-24"><polygon class="cls-10" points="90.33 339.52 0 216.42 123.07 126.11 213.41 249.11 90.33 339.52"/></g><g class="cls-23"><g class="cls-30"><rect class="cls-11" x="52.12" y="178.18" width="109.16" height="109.24"/></g></g><g class="cls-22"><polygon class="cls-15" points="311.3 563.13 219.79 438.55 344.38 347.08 435.84 471.67 311.3 563.13"/></g><g class="cls-27"><g class="cls-29"><rect class="cls-12" x="272.56" y="399.81" width="110.5" height="110.59"/></g></g><g class="cls-26"><polygon class="cls-6" points="276.02 258.94 186.38 136.85 308.45 47.19 398.15 169.27 276.02 258.94"/></g><g class="cls-25"><g class="cls-28"><rect class="cls-4" x="238.09" y="98.91" width="108.34" height="108.35"/></g></g><path class="cls-18" d="M450.44,133.76h-26.22v87.43h9.42v-30.76h18.31c25.88,0,35.18-9.75,35.18-27.79,0-19.95-10.61-28.88-36.68-28.88M451.28,181.87h-17.64v-39.47h13.55c18.18,0,30.29.91,30.29,20.25,0,13.8-7.22,19.23-26.2,19.23"/><path class="cls-18" d="M642.09,184.74c0,19.69-11.56,29.02-26.42,29.02s-25.99-9.33-25.99-29.02v-51h-9.57v51c0,26.18,16.11,37.87,35.51,37.87s36.04-11.69,36.04-37.87v-51h-9.57v51Z"/><path class="cls-18" d="M774.09,133.76h-26.33v87.43h9.55v-30.76h18.33c25.85,0,35.13-9.75,35.13-27.79,0-19.95-10.61-28.88-36.69-28.88M774.99,181.87h-17.68v-39.47h13.56c18.17,0,30.3.91,30.3,20.25,0,13.8-7.29,19.23-26.17,19.23"/><path class="cls-18" d="M966.72,185.83c0,19.59-11.52,28.98-26.28,28.98s-26.03-9.39-26.03-28.98v-51.05h-9.66v51.05c0,26.09,16.25,37.78,35.52,37.78s36.06-11.69,36.06-37.78v-51.05h-9.61v51.05Z"/><polygon class="cls-18" points="1116.2 170.49 1152.31 134.79 1140.35 134.79 1090.42 182.97 1090.42 134.79 1080.87 134.79 1080.87 221.11 1090.42 221.11 1090.42 196.08 1108.77 177.93 1143.47 221.11 1155.43 221.11 1116.2 170.49"/><rect class="cls-18" x="424.22" y="256.09" width="15.59" height="82.91"/><polygon class="cls-18" points="523.06 339 487.67 278.69 487.67 339 472.1 339 472.1 256.09 489.92 256.09 524.92 316.43 524.92 256.09 540.47 256.09 540.47 339 523.06 339"/><path class="cls-18" d="M619.5,334.39c-6.85,3.46-14.52,4.61-27.27,4.61h-19.68v-82.91h19.28c13.25,0,23.22,1.9,29.95,5.9,11.76,6.95,18.33,20.04,18.33,35.68,0,16.69-7.6,30.46-20.62,36.71M611.47,274.08c-4.94-2.46-10.21-3.29-20.1-3.29h-3.13v53.53h3.34c9.34,0,15.86-1.1,20.6-3.74,7.55-4.05,12.16-12.85,12.16-22.9,0-10.65-4.84-19.53-12.87-23.6"/><path class="cls-18" d="M708.54,340.45c-24.79,0-44.39-18.9-44.39-42.89s19.47-42.98,44.49-42.98,43.43,19.21,43.43,42.89-18.96,42.97-43.52,42.97M708.44,269.39c-16.18,0-28.46,12.16-28.46,28.18s12.46,28.09,28.46,28.09,27.85-12.04,27.85-27.97-12.21-28.3-27.85-28.3"/><polygon class="cls-18" points="831.36 339 796.08 278.69 796.08 339 780.4 339 780.4 256.09 798.18 256.09 833.13 316.43 833.13 256.09 848.81 256.09 848.81 339 831.36 339"/><polygon class="cls-18" points="880.86 339 880.86 256.09 926.22 256.09 926.22 270.79 896.54 270.79 896.54 290.29 925 290.29 925 305.02 896.54 305.02 896.54 324.31 926.22 324.31 926.22 339 880.86 339"/><path class="cls-18" d="M977.8,340.45c-14.82,0-26.38-9.43-27.72-25.13h16.33c.64,6.96,4.44,10.34,11.39,10.34s11.42-4.15,11.42-10.1c0-3.43-1.41-6.54-3.87-8.41-2.59-1.87-3.42-2.27-14.62-6.38-11.28-4.19-17.57-12.17-17.57-22.62,0-13.1,10.96-23.56,24.52-23.56s24.14,8.97,24.97,23.56h-16.2c-.39-5.61-3.69-8.75-8.86-8.75s-8.73,3.54-8.73,8.4c0,3.05,1.63,5.64,4.71,7.55,1.13.68,1.35.79,9.39,3.69,17.07,6.3,21.82,13.6,21.82,24.8,0,15.14-11.84,26.62-26.99,26.62"/><rect class="cls-18" x="1031.53" y="256.09" width="15.68" height="82.91"/><path class="cls-18" d="M1138.27,339l-9.07-21.43h-30l-9.46,21.43h-17.24l35.27-82.96h12.3l35.43,82.96h-17.22ZM1113.9,277.69l-9,25.17h18.01l-9-25.17Z"/><polygon class="cls-18" points="446.62 422.3 446.62 405.31 427.77 405.31 427.77 422.3 424.17 422.3 424.17 386 427.77 386 427.77 401.96 446.62 401.96 446.62 386 450.2 386 450.2 422.3 446.62 422.3"/><path class="cls-18" d="M492.53,422.95c-10.69,0-19.23-8.39-19.23-19.04,0-10.03,8.74-18.57,19.23-18.57s19.14,8.45,19.14,18.9-8.65,18.71-19.14,18.71M492.53,388.71c-8.42,0-15.53,7.09-15.53,15.31s6.94,15.68,15.53,15.68,15.45-7.09,15.45-15.45-7.05-15.53-15.45-15.53"/><polygon class="cls-18" points="534.7 422.3 534.7 386 538.37 386 538.37 418.99 553.44 418.99 553.44 422.3 534.7 422.3"/><path class="cls-18" d="M584.37,422.3h-9.76v-36.31h8.59c6.52,0,10.4.85,13.83,2.9,5.34,3.17,8.29,8.63,8.29,15.39,0,10.46-6.68,18.02-20.95,18.02M595.01,391.65c-2.68-1.64-6.17-2.29-11.67-2.29h-5.09v29.63h5.09c6.38,0,10.13-.9,13.06-3.13,3.32-2.81,5.22-6.99,5.22-11.67,0-5.45-2.44-10.08-6.61-12.55"/><rect class="cls-18" x="628.33" y="386" width="3.64" height="36.31"/><polygon class="cls-18" points="681.85 422.3 660.2 390.39 660.2 422.3 656.65 422.3 656.65 386 661.6 386 681.85 416.14 681.85 386 685.48 386 685.48 422.3 681.85 422.3"/><path class="cls-18" d="M728.83,422.95c-11.09,0-19.78-8.21-19.78-18.85s8.46-18.76,19.27-18.76c7.93,0,14.75,4.11,17.21,10.36h-3.99c-2.62-4.48-7.31-6.99-12.94-6.99-8.92,0-15.87,6.71-15.87,15.53s7.04,15.45,16,15.45c7.2,0,13.33-5.04,14.7-10.82h-20.3v-3.28h24.62c-.53,9.15-8.29,17.36-18.93,17.36"/><path class="cls-18" d="M818.97,422.95c-10.9,0-19.02-8.07-19.02-18.67s7.96-18.94,18.75-18.94c7.52,0,13.95,3.83,16.74,10.08h-4c-3.17-4.85-7.48-6.71-12.55-6.71-8.65,0-15.27,6.71-15.27,15.49s6.86,15.5,15.27,15.5c5.31,0,8.82-2.1,12.67-6.86h4.03c-3.6,6.67-9.25,10.12-16.63,10.12"/><path class="cls-18" d="M875.25,422.95c-10.65,0-19.25-8.39-19.25-19.04,0-10.03,8.81-18.57,19.25-18.57s19.19,8.45,19.19,18.9-8.72,18.71-19.19,18.71M875.25,388.71c-8.44,0-15.46,7.09-15.46,15.31s6.9,15.68,15.46,15.68,15.52-7.09,15.52-15.45-7.07-15.53-15.52-15.53"/><polygon class="cls-18" points="951.55 422.3 951.55 390.01 937.87 422.3 934.71 422.3 921.15 390.01 921.15 422.3 917.48 422.3 917.48 386 923.18 386 936.39 416.93 949.54 386 955.2 386 955.2 422.3 951.55 422.3"/><path class="cls-18" d="M990.38,407.65h-6.9v14.65h-3.54v-36.31h9.94c9.89,0,13.99,3.46,13.99,11.02,0,6.9-3.51,10.64-13.48,10.64M988.61,389.36h-5.13v14.97h6.71c7.23,0,9.94-2.11,9.94-7.32,0-7.33-4.56-7.65-11.52-7.65"/><path class="cls-18" d="M1051.25,422.3l-5.19-12.22h-17l-5.33,12.22h-3.83l15.6-36.31h4.14l15.64,36.31h-4.04ZM1037.6,390.1l-7.18,16.71h14.18l-7-16.71Z"/><polygon class="cls-18" points="1101.9 422.3 1080.26 390.39 1080.26 422.3 1076.7 422.3 1076.7 386 1081.56 386 1101.9 416.14 1101.9 386 1105.6 386 1105.6 422.3 1101.9 422.3"/><polygon class="cls-18" points="1142.78 410.22 1142.78 422.3 1139.14 422.3 1139.14 410.22 1126.5 386 1130.61 386 1140.92 406.35 1151.46 386 1155.43 386 1142.78 410.22"/></svg>