<?xml version="1.0" encoding="UTF-8"?><svg id="Layer_1" xmlns="http://www.w3.org/2000/svg" xmlns:xlink="http://www.w3.org/1999/xlink" viewBox="0 0 1107.16 512.16"><defs><style>.cls-1{clip-path:url(#clippath);}.cls-2{mask:url(#mask);}.cls-3{fill:url(#radial-gradient);}.cls-3,.cls-4,.cls-5,.cls-6,.cls-7{stroke-width:0px;}.cls-8,.cls-7{fill:#fff;}.cls-9{clip-path:url(#clippath-1);}.cls-10{clip-path:url(#clippath-4);}.cls-11{clip-path:url(#clippath-3);}.cls-12{clip-path:url(#clippath-2);}.cls-13{clip-path:url(#clippath-7);}.cls-14{clip-path:url(#clippath-6);}.cls-15{clip-path:url(#clippath-5);}.cls-4{fill:url(#radial-gradient-2);}.cls-5{fill:url(#radial-gradient-3);}.cls-6{fill:url(#radial-gradient-4);}.cls-16{mask:url(#mask-3);}.cls-17{mask:url(#mask-2);}.cls-18{mask:url(#mask-1);}</style><clipPath id="clippath"><path class="cls-7" d="M108.3,311.99c0,49.11,39.89,89.05,89.12,89.05s88.96-39.94,88.96-89.05-39.9-89.02-88.96-89.02-89.12,39.88-89.12,89.02"/></clipPath><clipPath id="clippath-1"><path class="cls-7" d="M108.3,311.99c0,49.11,39.89,89.05,89.12,89.05s88.96-39.94,88.96-89.05-39.9-89.02-88.96-89.02-89.12,39.88-89.12,89.02"/></clipPath><radialGradient id="radial-gradient" cx="39.19" cy="770.46" fx="39.19" fy="770.46" r="31.8" gradientTransform="translate(89.88 2449.41) scale(2.77 -2.77)" gradientUnits="userSpaceOnUse"><stop offset="0" stop-color="#000"/><stop offset=".44" stop-color="#000"/><stop offset="1" stop-color="gray"/></radialGradient><mask id="mask" x="108.3" y="222.97" width="178.08" height="178.07" maskUnits="userSpaceOnUse"><rect class="cls-3" x="108.3" y="222.97" width="178.08" height="178.07"/></mask><clipPath id="clippath-2"><path class="cls-7" d="M0,233.6c0,30.21,24.55,54.81,54.79,54.81s54.74-24.6,54.74-54.81-24.49-54.81-54.74-54.81S0,203.36,0,233.6"/></clipPath><clipPath id="clippath-3"><path class="cls-7" d="M0,233.6c0-30.24,24.55-54.81,54.79-54.81s54.74,24.57,54.74,54.81-24.49,54.81-54.74,54.81S0,263.81,0,233.6"/></clipPath><radialGradient id="radial-gradient-2" cx="-95.99" cy="750.46" fx="-95.99" fy="750.46" r="31.86" gradientTransform="translate(219.45 1515.09) scale(1.71 -1.71)" xlink:href="#radial-gradient"/><mask id="mask-1" x="0" y="178.79" width="109.53" height="109.62" maskUnits="userSpaceOnUse"><rect class="cls-4" y="178.79" width="109.53" height="109.62"/></mask><clipPath id="clippath-4"><path class="cls-7" d="M221.2,456.68c0,30.67,24.88,55.48,55.49,55.48s55.39-24.81,55.39-55.48-24.76-55.49-55.39-55.49-55.49,24.81-55.49,55.49"/></clipPath><clipPath id="clippath-5"><path class="cls-7" d="M221.2,456.68c0,30.67,24.88,55.48,55.49,55.48s55.39-24.81,55.39-55.48-24.76-55.49-55.39-55.49-55.49,24.81-55.49,55.49"/></clipPath><radialGradient id="radial-gradient-3" cx="30.91" cy="626.78" fx="30.91" fy="626.78" r="31.82" gradientTransform="translate(224.02 1539.82) scale(1.73 -1.73)" xlink:href="#radial-gradient"/><mask id="mask-2" x="221.2" y="401.19" width="110.88" height="110.97" maskUnits="userSpaceOnUse"><rect class="cls-5" x="221.2" y="401.19" width="110.88" height="110.97"/></mask><clipPath id="clippath-6"><path class="cls-7" d="M186.61,153.56c0,30.03,24.34,54.4,54.35,54.4s54.37-24.37,54.37-54.4-24.29-54.31-54.37-54.31-54.35,24.27-54.35,54.31"/></clipPath><clipPath id="clippath-7"><path class="cls-7" d="M186.61,153.56c0,30.03,24.34,54.4,54.35,54.4s54.37-24.37,54.37-54.4-24.29-54.31-54.37-54.31-54.35,24.27-54.35,54.31"/></clipPath><radialGradient id="radial-gradient-4" cx="8.55" cy="795.03" fx="8.55" fy="795.03" r="31.86" gradientTransform="translate(227.3 1500) scale(1.69 -1.69)" xlink:href="#radial-gradient"/><mask id="mask-3" x="186.61" y="99.25" width="108.72" height="108.72" maskUnits="userSpaceOnUse"><rect class="cls-6" x="186.61" y="99.25" width="108.72" height="108.72"/></mask></defs><path class="cls-7" d="M285.58,0c-24.76,0-44.81,20.02-44.81,44.79,0,16.72,9.24,31.25,22.86,39.03l-25,60.38,12.22,4.31,24.03-60.24c3.42.77,7.01,1.36,10.71,1.36,24.73,0,44.81-20.16,44.81-44.84S310.31,0,285.58,0M285.58,80.54c-19.75,0-35.77-16-35.77-35.75s16.02-35.8,35.77-35.8,35.73,16.04,35.73,35.8-15.93,35.75-35.73,35.75"/><polygon class="cls-7" points="228.42 170.9 201.63 236.07 213.66 240.42 239.2 176.53 228.42 170.9"/><polygon class="cls-7" points="151.25 260.57 82.7 244.05 80.35 256.66 147.36 272.03 151.25 260.57"/><polygon class="cls-7" points="256.6 419.35 220.54 358.86 209.82 365.88 245.64 424.5 256.6 419.35"/><path class="cls-8" d="M108.3,311.99c0,49.11,39.89,89.05,89.12,89.05s88.96-39.94,88.96-89.05-39.9-89.02-88.96-89.02-89.12,39.88-89.12,89.02"/><g class="cls-1"><polygon class="cls-7" points="170.7 486.03 23.33 285.37 223.97 138.06 371.31 338.63 170.7 486.03"/></g><path class="cls-8" d="M108.3,311.99c0,49.11,39.89,89.05,89.12,89.05s88.96-39.94,88.96-89.05-39.9-89.02-88.96-89.02-89.12,39.88-89.12,89.02"/><g class="cls-9"><g class="cls-2"><rect class="cls-7" x="108.3" y="222.97" width="178.08" height="178.07"/></g></g><path class="cls-8" d="M0,233.6c0,30.21,24.55,54.81,54.79,54.81s54.74-24.6,54.74-54.81-24.49-54.81-54.74-54.81S0,203.36,0,233.6"/><g class="cls-12"><polygon class="cls-7" points="38.35 340.69 -52.3 217.16 71.19 126.54 161.85 249.97 38.35 340.69"/></g><path class="cls-8" d="M0,233.6c0-30.24,24.55-54.81,54.79-54.81s54.74,24.57,54.74,54.81-24.49,54.81-54.74,54.81S0,263.81,0,233.6"/><g class="cls-11"><g class="cls-18"><rect class="cls-7" y="178.79" width="109.53" height="109.62"/></g></g><path class="cls-8" d="M221.2,456.68c0,30.67,24.88,55.48,55.49,55.48s55.39-24.81,55.39-55.48-24.76-55.49-55.39-55.49-55.49,24.81-55.49,55.49"/><g class="cls-10"><polygon class="cls-7" points="260.07 565.07 168.24 440.05 293.27 348.28 385.04 473.29 260.07 565.07"/></g><path class="cls-8" d="M221.2,456.68c0,30.67,24.88,55.48,55.49,55.48s55.39-24.81,55.39-55.48-24.76-55.49-55.39-55.49-55.49,24.81-55.49,55.49"/><g class="cls-15"><g class="cls-17"><rect class="cls-7" x="221.2" y="401.19" width="110.88" height="110.97"/></g></g><path class="cls-8" d="M186.61,153.56c0,30.03,24.34,54.4,54.35,54.4s54.37-24.37,54.37-54.4-24.29-54.31-54.37-54.31-54.35,24.27-54.35,54.31"/><g class="cls-14"><polygon class="cls-7" points="224.67 259.83 134.73 137.32 257.21 47.35 347.22 169.85 224.67 259.83"/></g><path class="cls-8" d="M186.61,153.56c0,30.03,24.34,54.4,54.35,54.4s54.37-24.37,54.37-54.4-24.29-54.31-54.37-54.31-54.35,24.27-54.35,54.31"/><g class="cls-13"><g class="cls-16"><rect class="cls-7" x="186.61" y="99.25" width="108.72" height="108.72"/></g></g><path class="cls-7" d="M399.69,134.22h-26.31v87.73h9.45v-30.87h18.37c25.97,0,35.3-9.78,35.3-27.89,0-20.01-10.64-28.98-36.81-28.98M400.53,182.49h-17.71v-39.61h13.6c18.24,0,30.39.91,30.39,20.31,0,13.84-7.24,19.29-26.29,19.29"/><path class="cls-7" d="M592,185.38c0,19.76-11.6,29.12-26.51,29.12s-26.07-9.36-26.07-29.12v-51.18h-9.6v51.18c0,26.27,16.16,38,35.63,38s36.17-11.73,36.17-38v-51.18h-9.6v51.18Z"/><path class="cls-7" d="M724.45,134.22h-26.42v87.73h9.59v-30.87h18.4c25.94,0,35.25-9.78,35.25-27.89,0-20.01-10.64-28.98-36.81-28.98M725.36,182.49h-17.74v-39.61h13.6c18.23,0,30.4.91,30.4,20.31,0,13.84-7.31,19.29-26.26,19.29"/><path class="cls-7" d="M917.75,186.47c0,19.65-11.56,29.08-26.37,29.08s-26.12-9.43-26.12-29.08v-51.22h-9.7v51.22c0,26.18,16.31,37.91,35.64,37.91s36.19-11.73,36.19-37.91v-51.22h-9.64v51.22Z"/><polygon class="cls-7" points="1067.74 171.08 1103.97 135.25 1091.97 135.25 1041.87 183.6 1041.87 135.25 1032.29 135.25 1032.29 221.87 1041.87 221.87 1041.87 196.76 1060.28 178.54 1095.1 221.87 1107.1 221.87 1067.74 171.08"/><rect class="cls-7" x="373.38" y="256.97" width="15.64" height="83.19"/><polygon class="cls-7" points="472.56 340.17 437.05 279.65 437.05 340.17 421.42 340.17 421.42 256.97 439.3 256.97 474.43 317.51 474.43 256.97 490.03 256.97 490.03 340.17 472.56 340.17"/><path class="cls-7" d="M569.34,335.54c-6.87,3.47-14.57,4.63-27.36,4.63h-19.74v-83.19h19.35c13.29,0,23.3,1.91,30.05,5.92,11.8,6.98,18.39,20.11,18.39,35.8,0,16.74-7.63,30.57-20.69,36.84M561.28,275.02c-4.96-2.46-10.24-3.3-20.17-3.3h-3.14v53.71h3.35c9.37,0,15.92-1.1,20.67-3.75,7.58-4.07,12.2-12.89,12.2-22.98,0-10.69-4.86-19.6-12.91-23.68"/><path class="cls-7" d="M658.68,341.62c-24.88,0-44.54-18.97-44.54-43.03s19.53-43.13,44.64-43.13,43.58,19.27,43.58,43.04-19.02,43.12-43.67,43.12M658.57,270.32c-16.23,0-28.56,12.2-28.56,28.27s12.5,28.19,28.56,28.19,27.95-12.08,27.95-28.06-12.26-28.4-27.95-28.4"/><polygon class="cls-7" points="781.92 340.17 746.52 279.65 746.52 340.17 730.78 340.17 730.78 256.97 748.62 256.97 783.69 317.51 783.69 256.97 799.43 256.97 799.43 340.17 781.92 340.17"/><polygon class="cls-7" points="831.59 340.17 831.59 256.97 877.11 256.97 877.11 271.72 847.32 271.72 847.32 291.29 875.88 291.29 875.88 306.06 847.32 306.06 847.32 325.43 877.11 325.43 877.11 340.17 831.59 340.17"/><path class="cls-7" d="M928.86,341.62c-14.87,0-26.47-9.46-27.82-25.22h16.39c.65,6.98,4.45,10.38,11.43,10.38s11.46-4.16,11.46-10.14c0-3.44-1.42-6.56-3.88-8.44-2.6-1.87-3.44-2.28-14.67-6.4-11.32-4.21-17.63-12.21-17.63-22.69,0-13.15,10.99-23.64,24.6-23.64s24.22,9,25.06,23.64h-16.25c-.4-5.63-3.71-8.78-8.89-8.78s-8.76,3.56-8.76,8.43c0,3.06,1.64,5.65,4.72,7.58,1.13.68,1.36.79,9.43,3.7,17.13,6.32,21.9,13.65,21.9,24.89,0,15.19-11.88,26.71-27.09,26.71"/><rect class="cls-7" x="982.78" y="256.97" width="15.74" height="83.19"/><path class="cls-7" d="M1089.88,340.17l-9.11-21.5h-30.1l-9.49,21.5h-17.3l35.39-83.24h12.34l35.55,83.24h-17.28ZM1065.43,278.65l-9.04,25.26h18.07l-9.04-25.26Z"/><polygon class="cls-7" points="395.86 423.75 395.86 406.71 376.94 406.71 376.94 423.75 373.33 423.75 373.33 387.32 376.94 387.32 376.94 403.34 395.86 403.34 395.86 387.32 399.45 387.32 399.45 423.75 395.86 423.75"/><path class="cls-7" d="M441.93,424.41c-10.73,0-19.3-8.42-19.3-19.1,0-10.06,8.77-18.64,19.3-18.64s19.2,8.48,19.2,18.97-8.68,18.77-19.2,18.77M441.93,390.05c-8.45,0-15.59,7.11-15.59,15.36s6.97,15.73,15.59,15.73,15.5-7.12,15.5-15.5-7.08-15.59-15.5-15.59"/><polygon class="cls-7" points="484.24 423.75 484.24 387.32 487.92 387.32 487.92 420.43 503.05 420.43 503.05 423.75 484.24 423.75"/><path class="cls-7" d="M534.08,423.75h-9.8v-36.43h8.62c6.54,0,10.43.85,13.87,2.91,5.36,3.18,8.32,8.66,8.32,15.44,0,10.49-6.7,18.08-21.02,18.08M544.76,393c-2.68-1.65-6.19-2.3-11.71-2.3h-5.11v29.73h5.11c6.4,0,10.16-.9,13.11-3.14,3.33-2.82,5.24-7.02,5.24-11.71,0-5.47-2.45-10.12-6.64-12.59"/><rect class="cls-7" x="578.19" y="387.32" width="3.65" height="36.43"/><polygon class="cls-7" points="631.89 423.75 610.17 391.73 610.17 423.75 606.61 423.75 606.61 387.32 611.57 387.32 631.89 417.57 631.89 387.32 635.54 387.32 635.54 423.75 631.89 423.75"/><path class="cls-7" d="M679.04,424.41c-11.13,0-19.85-8.24-19.85-18.92s8.49-18.82,19.34-18.82c7.96,0,14.8,4.12,17.27,10.4h-4.01c-2.63-4.49-7.33-7.02-12.98-7.02-8.95,0-15.92,6.74-15.92,15.59s7.07,15.5,16.06,15.5c7.23,0,13.38-5.06,14.75-10.86h-20.37v-3.29h24.7c-.53,9.18-8.32,17.42-18.99,17.42"/><path class="cls-7" d="M769.49,424.41c-10.94,0-19.08-8.1-19.08-18.73s7.99-19.01,18.82-19.01c7.54,0,13.99,3.84,16.8,10.12h-4.02c-3.18-4.87-7.5-6.74-12.59-6.74-8.68,0-15.32,6.74-15.32,15.54s6.89,15.55,15.32,15.55c5.33,0,8.85-2.11,12.71-6.88h4.04c-3.61,6.69-9.28,10.15-16.68,10.15"/><path class="cls-7" d="M825.96,424.41c-10.68,0-19.32-8.42-19.32-19.1,0-10.06,8.84-18.64,19.32-18.64s19.25,8.48,19.25,18.97-8.75,18.77-19.25,18.77M825.96,390.05c-8.47,0-15.52,7.11-15.52,15.36s6.92,15.73,15.52,15.73,15.57-7.12,15.57-15.5-7.09-15.59-15.57-15.59"/><polygon class="cls-7" points="902.52 423.75 902.52 391.35 888.79 423.75 885.62 423.75 872.02 391.35 872.02 423.75 868.34 423.75 868.34 387.32 874.05 387.32 887.31 418.36 900.51 387.32 906.19 387.32 906.19 423.75 902.52 423.75"/><path class="cls-7" d="M941.49,409.05h-6.93v14.7h-3.56v-36.43h9.97c9.92,0,14.04,3.47,14.04,11.06,0,6.92-3.52,10.67-13.53,10.67M939.71,390.7h-5.15v15.03h6.73c7.26,0,9.97-2.11,9.97-7.35,0-7.36-4.58-7.68-11.56-7.68"/><path class="cls-7" d="M1002.57,423.75l-5.21-12.27h-17.06l-5.35,12.27h-3.84l15.66-36.43h4.15l15.7,36.43h-4.05ZM988.87,391.44l-7.2,16.77h14.23l-7.02-16.77Z"/><polygon class="cls-7" points="1053.39 423.75 1031.67 391.73 1031.67 423.75 1028.11 423.75 1028.11 387.32 1032.98 387.32 1053.39 417.57 1053.39 387.32 1057.1 387.32 1057.1 423.75 1053.39 423.75"/><polygon class="cls-7" points="1094.4 411.63 1094.4 423.75 1090.75 423.75 1090.75 411.63 1078.08 387.32 1082.2 387.32 1092.54 407.75 1103.11 387.32 1107.1 387.32 1094.4 411.63"/></svg>